<?xml version="1.0" encoding="utf-8"?>
<!-- Generator: Adobe Illustrator 19.0.1, SVG Export Plug-In . SVG Version: 6.00 Build 0)  -->
<svg version="1.1" id="Layer_1" xmlns="http://www.w3.org/2000/svg" xmlns:xlink="http://www.w3.org/1999/xlink" x="0px" y="0px"
	 viewBox="-455 257 64 64" style="enable-background:new -455 257 64 64;" xml:space="preserve">
<style type="text/css">
	.st0{fill:#444444;}
</style>
<path class="st0" d="M-394,280h-27v-8c0-1.7,1.3-3,3-3h21c1.2,0,2-0.8,2-2c0-1.2-0.8-2-2-2h-21c-4,0-7,4-7,8v7h-27c-1.6,0-3,1.4-3,3
	v27c0,1.6,1.4,3,3,3l58.1,0c1.6,0,2.9-1.4,2.9-3v-27C-391,281.4-392.4,280-394,280z M-412,285c0-0.4,0.6-1,1-1h4c0.4,0,1,0.6,1,1v4
	c0,0.4-0.6,1-1,1h-4c-0.4,0-1-0.6-1-1V285z M-411,294v4c0,0.4-0.6,1-1,1h-4c-0.4,0-1-0.6-1-1v-4c0-0.4,0.6-1,1-1h4
	C-411.6,293-411,293.6-411,294z M-416,284c0.4,0,1,0.6,1,1v4c0,0.4-0.6,1-1,1h-4c-0.4,0-1-0.6-1-1v-4c0-0.4,0.6-1,1-1H-416L-416,284
	z M-420,294v4c0,0.4-0.6,1-1,1h-4c-0.4,0-1-0.6-1-1v-4c0-0.4,0.6-1,1-1h4C-420.6,293-420,293.6-420,294z M-430,285c0-0.4,0.6-1,1-1
	h4c0.4,0,1,0.6,1,1v4c0,0.4-0.6,1-1,1h-4c-0.4,0-1-0.6-1-1V285L-430,285z M-429,294v4c0,0.4-0.6,1-1,1h-4c-0.4,0-1-0.6-1-1v-4
	c0-0.4,0.6-1,1-1h4C-429.6,293-429,293.6-429,294z M-448,289v-4c0-0.4,0.6-1,1-1h4c0.4,0,1,0.6,1,1v4c0,0.4-0.6,1-1,1h-4
	C-447.4,290-448,289.4-448,289z M-441,307c0,0.4-0.6,1-1,1h-4c-0.4,0-1-0.6-1-1v-4c0-0.4,0.6-1,1-1h4c0.4,0,1,0.6,1,1V307z
	 M-438,298c0,0.4-0.4,1.1-1,1c-0.1,0-4,0-4,0c-0.4,0-1-0.6-1-1v-4c0-0.4,0.6-1,1-1h4c0.4,0,1,0.6,1,1V298z M-439,289v-4
	c0-0.4,0.6-1,1-1h4c0.4,0,1,0.6,1,1v4c0,0.4-0.6,1-1,1h-4C-438.4,290-439,289.4-439,289z M-408,307c0,0.4-0.6,1-1,1h-28
	c-0.4,0-1-0.6-1-1v-4c0-0.4,0.6-1,1-1h28c0.4,0,1,0.6,1,1V307L-408,307z M-402,298c0,0.4-0.6,1-1,1h-4c-0.4,0-1-0.6-1-1v-4
	c0-0.4,0.6-1,1-1h4c0.4,0,1,0.6,1,1V298z M-403,289v-4c0-0.4,0.6-1,1-1h4c0.4,0,1,0.6,1,1v4c0,0.4-0.6,1-1,1h-4
	C-402.4,290-403,289.4-403,289z M-399,307c0,0.4-0.6,1-1,1h-4c-0.4,0-1-0.6-1-1v-4c0-0.4,0.6-1,1-1h4c0.4,0,1,0.6,1,1V307L-399,307z
	"/>
</svg>
