<?xml version="1.0" encoding="utf-8"?>
<!-- Generator: Adobe Illustrator 19.0.1, SVG Export Plug-In . SVG Version: 6.00 Build 0)  -->
<svg version="1.1" id="Layer_1" xmlns="http://www.w3.org/2000/svg" xmlns:xlink="http://www.w3.org/1999/xlink" x="0px" y="0px"
	 viewBox="-455 257 64 64" style="enable-background:new -455 257 64 64;" xml:space="preserve">
<style type="text/css">
	.st0{fill:#444444;}
</style>
<g>
	<g>
		<path class="st0" d="M-414,260h-27c-2.5,0-5,2.5-5,5v49c0,2.5,1.5,4,4,4h37c3.2,0,5-1.9,5-5v-38L-414,260z M-414,268l7,7h-7V268z
			 M-405,313h-36v-48h23v11c0,0.9-0.2,1.2,0.4,1.8c0.6,0.6,1.7,1.2,2.6,1.2h10V313z M-434,277h7c1.4,0,3-1.6,3-3s-1.6-3-3-3h-7
			c-1.5,0-3,1.6-3,3S-435.5,277-434,277z M-437,284c0,1.5,1.5,3,3,3h22c1.4,0,3-1.6,3-3c0-1.4-1.5-3-3-3h-22
			C-435.5,281-437,282.6-437,284z M-412,291h-22c-1.5,0-3,1.6-3,3c0,1.4,1.5,3,3,3h22c1.4,0,3-1.6,3-3C-409,292.6-410.5,291-412,291
			z M-412,301h-22c-1.5,0-3,1.6-3,3c0,1.4,1.5,3,3,3h22c1.4,0,3-1.6,3-3C-409,302.6-410.5,301-412,301z"/>
	</g>
</g>
</svg>
