<?xml version="1.0" encoding="utf-8"?>
<!-- Generator: Adobe Illustrator 19.0.1, SVG Export Plug-In . SVG Version: 6.00 Build 0)  -->
<svg version="1.1" id="Layer_1" xmlns="http://www.w3.org/2000/svg" xmlns:xlink="http://www.w3.org/1999/xlink" x="0px" y="0px"
	 viewBox="-455 257 64 64" style="enable-background:new -455 257 64 64;" xml:space="preserve">
<style type="text/css">
	.st0{fill-rule:evenodd;clip-rule:evenodd;fill:#444444;}
</style>
<g>
	<g>
		<path class="st0" d="M-453,317c0,2.5,1.6,4,4,4h52c2.4,0,4-1.5,4-4v-16h-60V317z M-435,313h33c1.2,0,2,0.8,2,2c0,1.2-0.8,2-2,2
			h-33c-1.2,0-2-0.8-2-2C-437,313.8-436.2,313-435,313z M-444,313c1.1,0,2,0.9,2,2c0,1.1-0.9,2-2,2c-1.1,0-2-0.9-2-2
			C-446,313.9-445.1,313-444,313z M-397,290v-21l-12-12h-37c-1.6,0-3,1.4-3,3v30c-2.4,0-4,1.5-4,4v3h60v-3
			C-393,291.5-394.6,290-397,290z M-409,263l6,6h-6V263z M-401,289h-44v-28h32v9c0,1.5,1.5,3,3,3h9V289z M-440,281c0,1.2,0.8,2,2,2
			h30c1.2,0,2-0.8,2-2c0-1.2-0.8-2-2-2h-30C-439.2,279-440,279.8-440,281z M-438,273h17c1.2,0,2-0.8,2-2c0-1.2-0.8-2-2-2h-17
			c-1.2,0-2,0.8-2,2C-440,272.2-439.2,273-438,273z"/>
	</g>
</g>
</svg>
