<?xml version="1.0" encoding="utf-8"?>
<!-- Generator: Adobe Illustrator 19.0.1, SVG Export Plug-In . SVG Version: 6.00 Build 0)  -->
<svg version="1.1" id="Layer_1" onclick="alert('click dans le svg !!!')"
	 xmlns="http://www.w3.org/2000/svg" xmlns:xlink="http://www.w3.org/1999/xlink" x="0px" y="0px" viewBox="-447 249 64 64"
	 style="enable-background:new -447 249 64 64;" xml:space="preserve">
<style type="text/css">
	.st0{fill:#444444;}
</style>
<path class="st0" d="M-447,278.7c0,11.2,12.9,20.3,28.7,20.3c2.1,0,4.1-0.2,6.1-0.5c1.9-0.1,3.7-0.3,5.5-0.5c3.1,2.7,8,5.5,15,5.5
	h3.6v-0.1c1.6,0,3.2,0,5.1,0c-4.8-6.5-6-10.8-6.3-12.7c4-3.4,6.3-7.6,6.3-12.1c0-11.1-13.9-20-31-20c-0.6,0-3.5-0.1-4.4-0.1
	C-434.1,258.4-447,267.5-447,278.7z M-443.2,278.7c0-9.1,11.2-16.6,24.9-16.6c13.7,0,24.9,7.4,24.9,16.6c0,3.5-1.7,6.9-4.9,9.8
	l-0.7,0.7l0.2,1c0.2,1.6,1.1,4.7,3.7,9.3c-4.9-0.8-8.2-3.3-10.2-5.4l-0.8-0.9l-1.1,0.4c-3.5,1.2-7.2,1.7-11,1.7
	C-432.1,295.2-443.2,287.8-443.2,278.7z M-405.8,275.3c2,0,3.6,1.6,3.6,3.5c0,2-1.6,3.5-3.6,3.5s-3.6-1.6-3.6-3.5
	C-409.3,276.8-407.7,275.3-405.8,275.3z M-431.1,275.3c2,0,3.6,1.6,3.6,3.5c0,2-1.6,3.5-3.6,3.5s-3.6-1.6-3.6-3.5
	C-434.7,276.8-433.1,275.3-431.1,275.3z M-418.4,275.3c2,0,3.6,1.6,3.6,3.5c0,2-1.6,3.5-3.6,3.5s-3.6-1.6-3.6-3.5
	C-422,276.8-420.4,275.3-418.4,275.3z"/>
</svg>
