<?xml version="1.0" encoding="utf-8"?>
<!-- Generator: Adobe Illustrator 19.0.1, SVG Export Plug-In . SVG Version: 6.00 Build 0)  -->
<svg version="1.1" id="Layer_1" onclick="alert('click dans le svg !!!')"
	 xmlns="http://www.w3.org/2000/svg" xmlns:xlink="http://www.w3.org/1999/xlink" x="0px" y="0px" viewBox="-455 257 64 64"
	 style="enable-background:new -455 257 64 64;" xml:space="preserve">
<style type="text/css">
	.st0{fill:#444444;}
</style>
<path class="st0" d="M-455,286.8c0,11.2,12.9,20.3,28.7,20.3c2.1,0,4.1-0.2,6.1-0.5c1.9-0.1,3.7-0.3,5.5-0.5c3.1,2.7,8,5.5,15,5.5
	l3.6,0l0-0.1c1.6,0,3.2,0,5.1,0c-4.8-6.5-6-10.8-6.3-12.7c4-3.4,6.3-7.6,6.3-12.1c0-11.1-13.9-20-31-20c-0.6,0-3.5,0-4.4,0
	C-442.1,266.5-455,275.6-455,286.8z M-413.8,283.4c2,0,3.6,1.6,3.6,3.5c0,2-1.6,3.5-3.6,3.5s-3.6-1.6-3.6-3.5
	C-417.3,284.9-415.7,283.4-413.8,283.4z M-439.1,283.4c2,0,3.6,1.6,3.6,3.5c0,2-1.6,3.5-3.6,3.5c-2,0-3.6-1.6-3.6-3.5
	C-442.7,284.9-441.1,283.4-439.1,283.4z M-426.4,283.4c2,0,3.6,1.6,3.6,3.5c0,2-1.6,3.5-3.6,3.5c-2,0-3.6-1.6-3.6-3.5
	C-430,284.9-428.4,283.4-426.4,283.4z"/>
</svg>
