<?xml version="1.0" encoding="utf-8"?>
<!-- Generator: Adobe Illustrator 19.1.0, SVG Export Plug-In . SVG Version: 6.00 Build 0)  -->
<svg version="1.1" id="Calque_1" xmlns="http://www.w3.org/2000/svg" xmlns:xlink="http://www.w3.org/1999/xlink" x="0px" y="0px"
	 viewBox="0 0 64 64" style="enable-background:new 0 0 64 64;" xml:space="preserve">
<style type="text/css">
	.st0{fill:#444444;}
	.st1{fill:#FFFFFF;}
</style>
<path class="st0" d="M63.4,19.2c0,0-0.6-4.4-2.5-6.4c-2.4-2.5-5.2-2.8-6.4-3C45.4,9.2,32,9,32,9h0c0,0-13.4,0.2-22.4,0.9
	c-1.3,0.1-4,0.3-6.4,2.8c-1.9,1.9-2.5,6.4-2.5,6.4S0,24.4,0,29.6v4.9c0,5.2,0.6,10.4,0.6,10.4s0.6,4.4,2.5,6.4
	c2.4,2.5,5.6,2.5,7.1,2.7c5.1,0.5,21.8,0.6,21.8,0.6s13.4,0,22.4-0.7c1.3-0.1,4-0.2,6.4-2.7c1.9-1.9,2.5-6.4,2.5-6.4
	S64,39.6,64,34.4v-4.9C64,24.4,63.4,19.2,63.4,19.2z M14,19h-4v22h4v2H8V17h6V19z M25.4,38.3l0-18l17.3,9L25.4,38.3z M58,43h-6v-2h4
	V19h-4v-2h6V43z"/>
<rect x="8" y="47" class="st1" width="50" height="3"/>
</svg>
